<svg width="243" height="100" viewBox="0 0 243 100" fill="none" xmlns="http://www.w3.org/2000/svg">
<path fill-rule="evenodd" clip-rule="evenodd" d="M206.535 71.1651C207.843 71.1651 209.038 71.3355 210.118 71.6762C211.227 71.9886 212.151 72.3862 212.891 72.8689C213.317 73.1528 213.659 73.4793 213.914 73.8484C214.199 74.1892 214.341 74.6151 214.341 75.1262V92.2484C214.341 94.1224 213.929 95.6273 213.104 96.7631C212.308 97.8989 211.199 98.7223 209.777 99.2334C208.384 99.7445 206.806 100 205.043 100C203.621 100 202.398 99.844 201.374 99.5316C200.351 99.2193 199.654 98.9637 199.284 98.7649C198.431 98.2822 198.005 97.6718 198.005 96.9336C198.005 96.5361 198.09 96.1953 198.261 95.9113C198.46 95.6558 198.701 95.4569 198.986 95.3149C199.583 95.7692 200.422 96.1811 201.502 96.5502C202.611 96.9477 203.791 97.1465 205.043 97.1465C206.948 97.1465 208.398 96.7347 209.393 95.9113C210.417 95.0879 210.929 93.7958 210.929 92.0353V89.3491C210.519 89.6626 209.979 89.962 209.308 90.2464C208.398 90.6155 207.275 90.8002 205.938 90.8002C204.289 90.8002 202.768 90.4878 201.374 89.8631C199.981 89.21 198.858 88.1594 198.005 86.7113C197.152 85.2631 196.725 83.3465 196.725 80.9614C196.725 78.8034 197.138 77.0002 197.962 75.5521C198.815 74.104 199.981 73.0107 201.46 72.2725C202.938 71.5342 204.63 71.1651 206.535 71.1651ZM206.535 73.9762C204.63 73.9762 203.095 74.5583 201.929 75.7225C200.763 76.8867 200.18 78.6188 200.18 80.9188C200.18 83.4743 200.763 85.2916 201.929 86.3706C203.123 87.4496 204.588 87.9891 206.322 87.9891C207.573 87.989 208.583 87.7761 209.351 87.3502C209.983 86.9995 210.509 86.6198 210.929 86.2114V75.1687C210.445 74.8564 209.834 74.5867 209.095 74.3596C208.384 74.104 207.531 73.9762 206.535 73.9762Z" fill="#E7E9EA"/>
<path fill-rule="evenodd" clip-rule="evenodd" d="M234.53 71.1651C237.004 71.1651 238.966 71.7188 240.416 72.8262C241.866 73.9336 242.591 75.68 242.591 78.0651V88.1595C242.591 88.7841 242.463 89.2668 242.207 89.6075C241.98 89.9199 241.624 90.218 241.141 90.502C240.458 90.8711 239.548 91.2119 238.411 91.5242C237.274 91.8366 235.994 91.9928 234.572 91.9928C231.899 91.9928 229.824 91.4675 228.345 90.4168C226.895 89.3662 226.17 87.8471 226.17 85.8595C226.17 84.0138 226.781 82.6082 228.004 81.6428C229.255 80.649 230.975 80.0526 233.165 79.8539L239.222 79.2576V78.0651C239.222 76.6454 238.795 75.6089 237.942 74.9558C237.089 74.3027 235.937 73.9762 234.487 73.9762C233.321 73.9762 232.198 74.1466 231.117 74.4873C230.065 74.8281 229.127 75.2114 228.302 75.6373C228.075 75.4386 227.862 75.2114 227.663 74.9558C227.492 74.6719 227.407 74.3879 227.407 74.104C227.407 73.3657 227.819 72.7978 228.643 72.4002C229.411 72.0027 230.293 71.7045 231.288 71.5058C232.312 71.2786 233.392 71.1651 234.53 71.1651ZM233.932 82.4947C232.454 82.6083 231.359 82.9348 230.648 83.4743C229.937 84.0138 229.582 84.7946 229.582 85.8168C229.582 86.8674 229.994 87.691 230.819 88.2873C231.672 88.8835 232.923 89.1817 234.572 89.1817C235.767 89.1817 236.748 89.068 237.515 88.8409C238.312 88.5853 238.88 88.344 239.222 88.1168V81.941L233.932 82.4947Z" fill="#E7E9EA"/>
<path fill-rule="evenodd" clip-rule="evenodd" d="M128.96 71.1651C130.694 71.1651 132.216 71.5342 133.524 72.2725C134.86 73.0107 135.898 74.0472 136.637 75.3818C137.405 76.6879 137.789 78.1928 137.789 79.8965C137.789 80.5212 137.647 80.9755 137.362 81.2594C137.078 81.515 136.68 81.6713 136.168 81.7281L123.017 83.5649C123.354 85.1763 124.027 86.4524 125.036 87.3928C126.344 88.557 128.121 89.1391 130.367 89.1391C131.562 89.1391 132.642 88.9403 133.609 88.5428C134.576 88.1453 135.343 87.7193 135.912 87.265C136.225 87.4638 136.467 87.7051 136.637 87.9891C136.836 88.2446 136.936 88.5428 136.936 88.8835C136.936 89.423 136.623 89.9341 135.997 90.4168C135.4 90.8711 134.59 91.2403 133.566 91.5242C132.571 91.8082 131.448 91.9502 130.197 91.9502C128.007 91.9502 126.102 91.5526 124.481 90.7575C122.889 89.9625 121.652 88.7841 120.77 87.2224C119.917 85.6323 119.491 83.7014 119.491 81.4299C119.491 79.8114 119.718 78.3774 120.173 77.128C120.656 75.8503 121.311 74.7712 122.135 73.8909C122.988 73.0107 123.998 72.3434 125.164 71.8891C126.329 71.4064 127.595 71.1651 128.96 71.1651ZM128.917 73.9336C127.154 73.9336 125.69 74.5725 124.524 75.8503C123.447 77.0334 122.88 78.7132 122.823 80.8896L134.547 79.3003C134.434 77.7386 133.893 76.4607 132.927 75.4669C131.96 74.4447 130.623 73.9336 128.917 73.9336Z" fill="#E7E9EA"/>
<path fill-rule="evenodd" clip-rule="evenodd" d="M171.116 71.1651C172.851 71.1651 174.372 71.5342 175.68 72.2725C177.017 73.0107 178.055 74.0472 178.794 75.3818C179.562 76.6879 179.946 78.1929 179.946 79.8965C179.946 80.5212 179.804 80.9755 179.519 81.2594C179.235 81.515 178.837 81.6713 178.325 81.7281L165.173 83.5649C165.511 85.1763 166.183 86.4524 167.192 87.3928C168.5 88.557 170.278 89.1391 172.524 89.1391C173.718 89.1391 174.799 88.9403 175.766 88.5428C176.733 88.1453 177.5 87.7193 178.069 87.265C178.382 87.4638 178.624 87.7051 178.794 87.9891C178.993 88.2446 179.093 88.5428 179.093 88.8835C179.093 89.423 178.78 89.9341 178.154 90.4168C177.557 90.8712 176.747 91.2403 175.723 91.5242C174.728 91.8082 173.605 91.9502 172.354 91.9502C170.164 91.9502 168.259 91.5526 166.638 90.7575C165.046 89.9625 163.809 88.7841 162.927 87.2224C162.074 85.6323 161.647 83.7015 161.647 81.4299C161.647 79.8114 161.875 78.3774 162.33 77.128C162.813 75.8503 163.467 74.7712 164.292 73.8909C165.145 73.0107 166.154 72.3434 167.32 71.8891C168.486 71.4064 169.752 71.1651 171.116 71.1651ZM171.074 73.9336C169.311 73.9336 167.846 74.5725 166.681 75.8503C165.603 77.0334 165.037 78.7132 164.979 80.8896L176.704 79.3003C176.59 77.7386 176.05 76.4607 175.083 75.4669C174.116 74.4447 172.78 73.9336 171.074 73.9336Z" fill="#E7E9EA"/>
<path d="M149.713 71.1651C152.3 71.1651 154.334 71.7614 155.812 72.954C157.319 74.1182 158.073 75.9355 158.073 78.4058V91.3113C157.931 91.3681 157.703 91.4249 157.39 91.4817C157.106 91.5669 156.807 91.6095 156.495 91.6095C155.869 91.6095 155.4 91.4958 155.087 91.2687C154.803 91.0131 154.661 90.6156 154.661 90.0762V78.5761C154.661 76.986 154.206 75.8218 153.296 75.0836C152.414 74.3453 151.22 73.9762 149.713 73.9762C148.575 73.9762 147.566 74.1181 146.685 74.402C145.803 74.686 145.049 75.0127 144.424 75.3818V91.3113C144.282 91.3681 144.068 91.4249 143.784 91.4817C143.5 91.5669 143.187 91.6095 142.846 91.6095C142.249 91.6095 141.794 91.4958 141.481 91.2687C141.168 91.0131 141.012 90.6156 141.012 90.0762V75.5521C141.012 74.9558 141.125 74.4731 141.353 74.104C141.609 73.7065 142.035 73.3231 142.632 72.954C143.372 72.5281 144.353 72.1305 145.576 71.7613C146.798 71.3638 148.177 71.1651 149.713 71.1651Z" fill="#E7E9EA"/>
<path d="M192.04 71.1651C194.315 71.1651 195.453 71.7331 195.453 72.8689C195.453 73.1528 195.41 73.4225 195.325 73.678C195.239 73.9051 195.126 74.1039 194.983 74.2743C194.699 74.2175 194.329 74.1608 193.874 74.104C193.419 74.0472 192.964 74.0187 192.509 74.0187C191.201 74.0187 190.05 74.1607 189.054 74.4447C188.059 74.7002 187.235 75.0127 186.581 75.3818V91.3113C186.439 91.3681 186.225 91.4249 185.941 91.4817C185.657 91.5669 185.344 91.6095 185.002 91.6095C184.405 91.6095 183.95 91.4958 183.638 91.2687C183.325 91.0131 183.168 90.6156 183.168 90.0762V75.6373C183.168 74.9843 183.282 74.4731 183.51 74.104C183.766 73.7065 184.178 73.3231 184.746 72.954C185.486 72.4713 186.495 72.0596 187.775 71.7189C189.055 71.3497 190.476 71.1651 192.04 71.1651Z" fill="#E7E9EA"/>
<path d="M220.786 71.5058C221.383 71.5058 221.824 71.6336 222.108 71.8891C222.421 72.1163 222.578 72.5139 222.578 73.0818V91.3113C222.436 91.3681 222.222 91.4249 221.938 91.4817C221.654 91.5669 221.341 91.6095 221 91.6095C220.402 91.6095 219.947 91.4958 219.635 91.2687C219.322 91.0131 219.165 90.6156 219.165 90.0762V71.804C219.308 71.7472 219.521 71.6903 219.805 71.6336C220.118 71.5484 220.445 71.5058 220.786 71.5058Z" fill="#E7E9EA"/>
<path d="M100.678 68.9077C101.219 68.9077 101.603 69.0355 101.83 69.2911C102.086 69.5466 102.214 69.9867 102.214 70.6113V77.2558H109.806C109.863 77.4262 109.92 77.6249 109.977 77.8521C110.062 78.0792 110.105 78.3206 110.105 78.5761C110.105 79.0304 109.977 79.3997 109.721 79.6836C109.465 79.9391 109.095 80.0669 108.612 80.067H102.214V88.2873C102.015 88.3724 101.802 88.4434 101.574 88.5002C101.347 88.557 101.077 88.5853 100.764 88.5853C100.195 88.5853 99.7687 88.4576 99.4843 88.2021C99.2284 87.9466 99.1004 87.5064 99.1004 86.8817V80.067H91.3802C91.2949 79.8682 91.2237 79.6693 91.1668 79.4705C91.1099 79.2434 91.0815 78.9878 91.0815 78.7039C91.0816 78.2212 91.2095 77.8663 91.4654 77.6392C91.7498 77.3836 92.1194 77.2558 92.5744 77.2558H99.1004V69.2058C99.3279 69.1206 99.5553 69.0496 99.7827 68.9929C100.039 68.9361 100.337 68.9077 100.678 68.9077Z" fill="#E7E9EA"/>
<path d="M220.872 63.3706C221.526 63.3706 222.052 63.5836 222.45 64.0095C222.848 64.407 223.047 64.9041 223.047 65.5004C223.047 66.0966 222.848 66.6078 222.45 67.0337C222.052 67.4312 221.526 67.6299 220.872 67.6299C220.246 67.6299 219.72 67.4312 219.293 67.0337C218.867 66.6078 218.654 66.0966 218.654 65.5004C218.654 64.9041 218.867 64.407 219.293 64.0095C219.72 63.5836 220.246 63.3706 220.872 63.3706Z" fill="#E7E9EA"/>
<path d="M23.7666 11.2853C25.3278 11.2853 26.9471 11.3719 28.624 11.545C30.3588 11.6605 32.0361 11.8346 33.6553 12.0656C35.3321 12.2964 36.9224 12.5845 38.4258 12.9308C39.4355 13.1246 40.3674 13.332 41.2207 13.5519C41.9337 13.7358 42.4159 14.3871 42.416 15.1222V67.9034C42.4158 68.8229 41.6691 69.5684 40.748 69.5685H31.1602C30.239 69.5685 29.4914 68.8229 29.4912 67.9034V59.298C29.4911 58.0957 28.2491 57.283 27.1016 57.6476C26.4072 57.8683 25.7004 58.0584 24.9814 58.2179C23.4201 58.5643 21.7428 58.7374 19.9502 58.7374C13.4736 58.7374 8.52896 56.6302 5.11719 52.4161C1.70574 48.1444 6.30335e-05 42.3719 0 35.0988C0 31.5774 0.520642 28.3728 1.56152 25.4865C2.66022 22.5425 4.22128 20.0314 6.24512 17.9532C8.26904 15.8173 10.7559 14.1722 13.7051 13.0177C16.6542 11.8632 20.008 11.2853 23.7666 11.2853ZM226.544 11.8204C229.32 11.8204 231.98 12.0802 234.524 12.5997C236.367 12.9342 237.938 13.2994 239.234 13.6945C240.025 13.9356 240.462 14.7552 240.281 15.5607L238.749 22.3839C238.531 23.3535 237.517 23.9162 236.562 23.6349C235.563 23.3402 234.507 23.0679 233.396 22.8175C231.662 22.4135 229.695 22.2111 227.498 22.2111C223.45 22.2111 221.427 23.3377 221.427 25.589C221.427 26.1082 221.513 26.5699 221.687 26.9738C221.86 27.3778 222.207 27.7826 222.728 28.1866C223.248 28.533 223.942 28.9368 224.81 29.3986C225.735 29.8026 226.892 30.2648 228.279 30.7843C231.113 31.8233 233.454 32.8625 235.305 33.9015C237.155 34.8828 238.601 35.9794 239.642 37.1915C240.74 38.346 241.493 39.645 241.897 41.088C242.36 42.5311 242.591 44.2056 242.591 46.1105C242.591 50.6131 240.885 54.0191 237.474 56.3282C234.12 58.6373 229.349 59.7921 223.161 59.7921C219.113 59.7921 215.73 59.4458 213.013 58.7531C211.207 58.2828 209.774 57.8659 208.715 57.5021C207.973 57.2473 207.575 56.474 207.733 55.7072L209.229 48.4825C209.438 47.4702 210.511 46.8931 211.49 47.2306C213.095 47.7841 214.73 48.2482 216.396 48.6222C218.709 49.084 220.993 49.3146 223.248 49.3146C225.619 49.3146 227.296 49.084 228.279 48.6222C229.262 48.1604 229.754 47.2652 229.754 45.9376C229.754 44.8986 229.118 44.0035 227.846 43.2531C226.574 42.4449 224.636 41.5498 222.034 40.5685C220.01 39.818 218.159 39.0388 216.482 38.2306C214.863 37.4225 213.476 36.4699 212.319 35.3732C211.163 34.2187 210.266 32.8624 209.63 31.3038C208.994 29.7452 208.676 27.8685 208.676 25.6749C208.676 21.4033 210.266 18.0263 213.446 15.5441C216.627 13.0618 220.993 11.8205 226.544 11.8204ZM56.9863 13.0323C57.9076 13.0324 58.6543 13.7787 58.6543 14.6984V36.8448C58.6543 41.0012 59.204 44.0034 60.3027 45.8507C61.4014 47.6979 63.4541 48.6212 66.4609 48.6212C67.3861 48.6212 68.3693 48.593 69.4102 48.5353C69.881 48.4831 70.3284 48.4303 70.752 48.3781C71.5757 48.2764 72.1855 47.5729 72.1855 46.7443V14.6984C72.1855 13.7787 72.9332 13.0323 73.8545 13.0323H83.4424C84.3635 13.0325 85.1104 13.7788 85.1104 14.6984V55.7697C85.1102 56.5109 84.62 57.1659 83.9004 57.3488C81.9034 57.8562 79.4728 58.3243 76.6094 58.7531C73.1399 59.3303 69.497 59.6183 65.6807 59.6183C61.8063 59.6183 58.568 59.0987 55.9658 58.0597C53.4215 57.0206 51.397 55.5779 49.8936 53.7306C48.3901 51.8257 47.3207 49.5743 46.6846 46.9767C46.0485 44.379 45.7305 41.5207 45.7305 38.4034V14.6984C45.7305 13.7787 46.4772 13.0323 47.3984 13.0323H56.9863ZM107.876 11.8204C111.693 11.8204 114.874 12.2534 117.418 13.1193C119.962 13.9852 121.986 15.2266 123.489 16.8429C125.051 18.4592 126.15 20.4216 126.786 22.7306C127.422 25.0397 127.74 27.609 127.74 30.4376V55.9406C127.74 56.7231 127.194 57.4014 126.425 57.5538C124.732 57.8894 122.596 58.26 120.02 58.6661C116.723 59.2434 112.734 59.5323 108.05 59.5323C105.101 59.5323 102.411 59.2726 99.9824 58.7531C97.6117 58.2335 95.5589 57.3958 93.8242 56.2413C92.0896 55.0291 90.7592 53.4704 89.834 51.5656C88.9089 49.6606 88.4463 47.3226 88.4463 44.5519C88.4463 41.8965 88.967 39.6452 90.0078 37.798C91.1065 35.9507 92.5522 34.4788 94.3447 33.382C96.1372 32.2852 98.1901 31.5059 100.503 31.0441C102.816 30.5245 105.217 30.2648 107.703 30.2648C109.38 30.2648 110.855 30.3514 112.127 30.5245C112.887 30.5905 113.562 30.6748 114.151 30.7784C114.751 30.8837 115.336 30.4386 115.336 29.8312C115.336 27.6377 114.671 25.8766 113.341 24.549C112.011 23.2214 109.697 22.5577 106.401 22.5577C104.204 22.5578 102.036 22.731 99.8965 23.0773C98.5848 23.2542 97.3814 23.4852 96.2871 23.7706C95.2685 24.0363 94.191 23.4074 94.0264 22.3693L92.9229 15.4122C92.7931 14.5935 93.2864 13.8022 94.0928 13.6046C94.5174 13.5006 94.9776 13.3962 95.4727 13.2921C96.6291 13.0035 97.8723 12.7729 99.2021 12.5997C100.532 12.3688 101.92 12.1957 103.365 12.0802C104.869 11.907 106.373 11.8204 107.876 11.8204ZM149.812 12.0802C150.505 12.0802 151.344 12.1376 152.327 12.2531C153.31 12.3108 154.293 12.4266 155.276 12.5997C156.259 12.7152 157.243 12.8884 158.226 13.1193C158.658 13.1955 159.063 13.2834 159.439 13.382C160.21 13.5838 160.627 14.3746 160.468 15.1544L158.92 22.757C158.731 23.6864 157.803 24.2693 156.874 24.0695C156.142 23.9118 155.349 23.7545 154.496 23.5968C152.935 23.2504 151.257 23.0773 149.465 23.0773C148.655 23.0773 147.672 23.1639 146.516 23.337C146.03 23.388 145.596 23.4447 145.212 23.507C144.485 23.6249 144 24.2736 144 25.0089V56.9142C144 57.8338 143.253 58.5801 142.332 58.5802H132.744C131.823 58.5802 131.075 57.8339 131.075 56.9142V16.6388C131.075 15.9312 131.523 15.2985 132.197 15.0802C134.254 14.4144 136.598 13.7899 139.229 13.2062C142.41 12.4557 145.937 12.0802 149.812 12.0802ZM174.44 0.0216064C175.454 -0.141446 176.374 0.640806 176.374 1.66614V25.0812C176.374 26.5998 178.237 27.3196 179.25 26.1866C179.59 25.8058 179.933 25.421 180.277 25.0323C181.665 23.5314 182.995 22.0595 184.268 20.6163C185.54 19.1154 186.726 17.7009 187.824 16.3732C188.751 15.3092 189.567 14.3563 190.271 13.5148C190.59 13.1329 191.062 12.9103 191.561 12.9103H202.467C203.897 12.9103 204.662 14.5879 203.718 15.6603C201.482 18.1988 199.278 20.6593 197.105 23.0411C194.568 25.8277 191.807 28.7027 188.824 31.6671C188.143 32.3441 188.169 33.4535 188.857 34.1232C190.186 35.4155 191.547 36.8883 192.941 38.5411C194.792 40.677 196.585 42.8992 198.319 45.2081C200.054 47.5172 201.644 49.8268 203.09 52.1359C203.953 53.5142 204.734 54.8204 205.432 56.0548C206.046 57.1403 205.247 58.4568 203.998 58.4572H192.833C192.254 58.4572 191.717 58.1566 191.409 57.6671C190.602 56.3841 189.696 55.0013 188.691 53.5206C187.535 51.6735 186.292 49.855 184.962 48.0656C183.632 46.2183 182.214 44.4574 180.711 42.7833C180.122 42.1013 179.533 41.4621 178.944 40.8663C177.962 39.8726 176.374 40.6097 176.374 42.006V56.7911C176.374 57.7108 175.627 58.4571 174.706 58.4572H165.118C164.197 58.4571 163.45 57.7108 163.45 56.7911V1.66614C163.45 0.848774 164.044 0.151712 164.853 0.0216064H174.44ZM110.132 38.924C108.918 38.924 107.761 39.0106 106.662 39.1837C105.621 39.2992 104.695 39.5589 103.886 39.963C103.076 40.3671 102.44 40.915 101.978 41.6075C101.515 42.3002 101.284 43.1663 101.284 44.2052C101.284 46.2256 101.949 47.6402 103.279 48.4484C104.667 49.1988 106.546 49.5743 108.917 49.5743C110.189 49.5743 111.404 49.5452 112.561 49.4874C113.062 49.4624 113.519 49.4325 113.934 49.3966C114.746 49.3262 115.336 48.6313 115.336 47.8175V40.7784C115.336 39.9982 114.791 39.3266 114.017 39.2218C113.709 39.1803 113.369 39.1383 112.994 39.0968C111.953 38.9814 110.999 38.924 110.132 38.924ZM23.8535 22.2833C20.3261 22.2833 17.6657 23.4955 15.873 25.92C14.0807 28.2868 13.1846 31.4616 13.1846 35.4445C13.1846 43.6995 16.2493 47.8273 22.3789 47.8273C23.7089 47.8273 25.0101 47.6541 26.2822 47.3077C27.2148 47.0649 28.0196 46.7793 28.6963 46.4513C29.2068 46.2038 29.4912 45.6663 29.4912 45.0997V24.1056C29.4912 23.301 28.9147 22.6097 28.1123 22.5343C27.7879 22.5039 27.4374 22.4782 27.0625 22.4562C26.0796 22.3408 25.0099 22.2833 23.8535 22.2833Z" fill="#E7E9EA"/>
</svg>
